<svg xmlns="http://www.w3.org/2000/svg" width="47.852" height="48.001" viewBox="0 0 47.852 48.001">
  <g>
    <g>
      <path d="M.9,40.024a1.947,1.947,0,0,0,1.941,1.941h8.949a1.947,1.947,0,0,0,1.941-1.941V31.7H.9v8.324Z" fill="#79ccb8"/>
      <rect x="0.903" y="21.434" width="12.832" height="10.266" fill="#59c5ef"/>
      <path d="M11.793.9H2.844A1.947,1.947,0,0,0,.9,2.844v8.324H13.735V2.844A1.948,1.948,0,0,0,11.793.9Z" fill="#f1bb6b"/>
      <rect x="0.903" y="11.168" width="12.832" height="10.266" fill="#e49a61"/>
      <path d="M11.793,0H2.844A2.847,2.847,0,0,0,0,2.844v37.18a2.848,2.848,0,0,0,2.844,2.844h8.949a2.847,2.847,0,0,0,2.844-2.844V2.844A2.847,2.847,0,0,0,11.793,0Zm1.039,20.532H1.805V12.071H12.832Zm-11.027,1.8H12.832V30.8H1.805Zm0-19.492A1.041,1.041,0,0,1,2.844,1.805h8.949a1.041,1.041,0,0,1,1.039,1.039v7.423H1.805Zm11.027,37.18a1.041,1.041,0,0,1-1.039,1.039H2.844a1.041,1.041,0,0,1-1.039-1.039V32.6H12.832Z" fill="#7a8e9b"/>
    </g>
    <g>
      <rect x="14.698" y="19.026" width="10.265" height="12.833" transform="translate(-12.172 21.393) rotate(-44.854)" fill="#e2e2e2"/>
      <path d="M5.8,30.388a1.948,1.948,0,0,0-.007,2.746L12.1,39.478a1.948,1.948,0,0,0,2.746.007l5.9-5.87-9.05-9.1Z" fill="#ffbd66"/>
      <path d="M41.214,10.517,34.9,4.173a1.949,1.949,0,0,0-2.747-.007l-5.9,5.871,9.05,9.1,5.9-5.871A1.948,1.948,0,0,0,41.214,10.517Z" fill="#79ccb8"/>
      <rect x="21.989" y="11.79" width="10.266" height="12.832" transform="translate(-4.946 24.429) rotate(-44.854)" fill="#db5743"/>
      <path d="M41.853,9.88,35.542,3.537A2.822,2.822,0,0,0,33.533,2.7h-.008a2.824,2.824,0,0,0-2,.825L25.62,9.4h0l-7.278,7.241h0l-7.276,7.238h0l-5.9,5.871a2.849,2.849,0,0,0-.011,4.022l6.312,6.343a2.825,2.825,0,0,0,2.009.836h.008a2.824,2.824,0,0,0,2-.826l5.9-5.869h0l7.278-7.241,7.277-7.239,5.9-5.871a2.85,2.85,0,0,0,.009-4.022Zm-21.1,22.459L12.977,24.52l6-5.967,7.778,7.817ZM28.032,25.1l-2.308-2.319-5.47-5.5,6-5.968L34.03,19.13ZM14.213,38.846a1.032,1.032,0,0,1-.732.3h0a1.03,1.03,0,0,1-.734-.3L6.433,32.5a1.042,1.042,0,0,1,0-1.47L11.7,25.793l7.778,7.817ZM40.57,12.623l-5.261,5.234-3.924-3.943L27.531,10.04l5.261-5.234a1.035,1.035,0,0,1,.732-.3h0a1.035,1.035,0,0,1,.735.3l6.311,6.344a1.045,1.045,0,0,1,0,1.469Z" fill="#525c6b"/>
    </g>
    <g>
      <rect x="16.153" y="34.267" width="10.266" height="12.831" fill="#f87670"/>
      <path d="M7.829,34.267a1.947,1.947,0,0,0-1.942,1.941v8.948A1.948,1.948,0,0,0,7.829,47.1h8.324V34.266H7.829Z" fill="#59c5ef"/>
      <path d="M45.008,34.267H36.684V47.1h8.324a1.948,1.948,0,0,0,1.942-1.941V36.209A1.947,1.947,0,0,0,45.008,34.267Z" fill="#fddc85"/>
      <rect x="26.418" y="34.267" width="10.266" height="12.831" fill="#79ccb8"/>
      <path d="M45.008,33.365H7.828a2.846,2.846,0,0,0-2.844,2.844v8.948A2.847,2.847,0,0,0,7.828,48h37.18a2.847,2.847,0,0,0,2.844-2.844V36.209A2.847,2.847,0,0,0,45.008,33.365ZM6.79,45.157V36.209A1.04,1.04,0,0,1,7.83,35.17h7.421V46.2H7.83A1.04,1.04,0,0,1,6.79,45.157Zm10.265-9.988h8.461V46.2H17.055Zm10.266,0h8.461V46.2H27.321Zm18.726,9.988a1.041,1.041,0,0,1-1.04,1.039H37.586V35.17h7.421a1.041,1.041,0,0,1,1.04,1.039Z" fill="#7a8e9b"/>
      <circle cx="11.168" cy="40.683" r="1.925" fill="#fff"/>
    </g>
  </g>
</svg>
