<?xml version="1.0" encoding="utf-8"?>
<!-- Generator: Adobe Illustrator 24.0.0, SVG Export Plug-In . SVG Version: 6.00 Build 0)  -->
<svg version="1.1" xmlns="http://www.w3.org/2000/svg" xmlns:xlink="http://www.w3.org/1999/xlink" x="0px" y="0px"
	 viewBox="0 0 64 64" enable-background="new 0 0 64 64" xml:space="preserve">
<g id="Captions">
</g>
<g id="Icons">
	<g>
		<g>
			<g>
				<g>
					<path fill="#C80A50" d="M33,32h-2c-2.761,0-5,2.239-5,5v10c0,0.552,0.448,1,1,1h10c0.552,0,1-0.448,1-1V37
						C38,34.239,35.761,32,33,32z"/>
				</g>
				<g>
					<path fill="#C80A50" d="M40,56H24v-6c0-2.209,1.791-4,4-4h8c2.209,0,4,1.791,4,4V56z"/>
				</g>
				<g>
					<path fill="#00A0C8" d="M28,46c0,2.209,1.791,4,4,4s4-1.791,4-4H28z"/>
				</g>
				<g>
					<path fill="#D2AA82" d="M32,48L32,48c-1.105,0-2-0.895-2-2v-3h4v3C34,47.105,33.105,48,32,48z"/>
				</g>
				<g>
					<path fill="#F0C8A0" d="M33,44h-2c-1.657,0-3-1.343-3-3v-3c0-1.105,0.895-2,2-2h1v0c0,1.105,0.895,2,2,2h3v3
						C36,42.657,34.657,44,33,44z"/>
				</g>
			</g>
			<g>
				<g>
					<path fill="#FAB400" d="M20,56H4v-9c0-1.657,1.343-3,3-3h10c1.657,0,3,1.343,3,3V56z"/>
				</g>
				<g>
					<path fill="#00A0C8" d="M8,44c0,2.209,1.791,4,4,4s4-1.791,4-4H8z"/>
				</g>
				<g>
					<path fill="#D2AA82" d="M12,46L12,46c-1.105,0-2-0.895-2-2v-3h4v3C14,45.105,13.105,46,12,46z"/>
				</g>
				<g>
					<path fill="#F0C8A0" d="M13,42h-2c-1.657,0-3-1.343-3-3v-3c0-1.105,0.895-2,2-2h4c1.105,0,2,0.895,2,2v3
						C16,40.657,14.657,42,13,42z"/>
				</g>
				<g>
					<path fill="#0A5078" d="M14,34h-4c-1.105,0-2,0.895-2,2v0v-2c0-1.105,0.895-2,2-2h4c1.105,0,2,0.895,2,2v2v0
						C16,34.895,15.105,34,14,34z"/>
				</g>
			</g>
			<g>
				<g>
					<path fill="#00A0C8" d="M60,56H44v-9c0-1.657,1.343-3,3-3h10c1.657,0,3,1.343,3,3V56z"/>
				</g>
				<g>
					<path fill="#0A5078" d="M48,44c0,2.209,1.791,4,4,4s4-1.791,4-4H48z"/>
				</g>
				<g>
					<path fill="#D2AA82" d="M52,46L52,46c-1.105,0-2-0.895-2-2v-3h4v3C54,45.105,53.105,46,52,46z"/>
				</g>
				<g>
					<path fill="#F0C8A0" d="M53,42h-2c-1.657,0-3-1.343-3-3v-3c0-1.105,0.895-2,2-2h4c1.105,0,2,0.895,2,2v3
						C56,40.657,54.657,42,53,42z"/>
				</g>
				<g>
					<path fill="#DC9600" d="M54,34h-4c-1.105,0-2,0.895-2,2v0v-2c0-1.105,0.895-2,2-2h4c1.105,0,2,0.895,2,2v2v0
						C56,34.895,55.105,34,54,34z"/>
				</g>
			</g>
		</g>
		<g>
			<polygon fill="#F0F0F0" points="14,44 14,50 10,50 10,44 8,44 8,56 16,56 16,44 			"/>
		</g>
		<g>
			<polygon fill="#F0F0F0" points="34,46 34,52 30,52 30,46 28,46 28,56 36,56 36,46 			"/>
		</g>
		<g>
			<polygon fill="#F0F0F0" points="54,44 54,50 50,50 50,44 48,44 48,56 56,56 56,44 			"/>
		</g>
		<g>
			<rect x="4" y="56" fill="#00325A" width="56" height="4"/>
		</g>
		<g>
			<rect x="4" y="55" fill="#DC9600" width="4" height="1"/>
		</g>
		<g>
			<rect x="8" y="55" fill="#D2D2D2" width="8" height="1"/>
		</g>
		<g>
			<rect x="16" y="55" fill="#DC9600" width="4" height="1"/>
		</g>
		<g>
			<rect x="24" y="55" fill="#A00028" width="4" height="1"/>
		</g>
		<g>
			<rect x="28" y="55" fill="#D2D2D2" width="8" height="1"/>
		</g>
		<g>
			<rect x="36" y="55" fill="#A00028" width="4" height="1"/>
		</g>
		<g>
			<rect x="44" y="55" fill="#0082AA" width="4" height="1"/>
		</g>
		<g>
			<rect x="48" y="55" fill="#D2D2D2" width="8" height="1"/>
		</g>
		<g>
			<rect x="56" y="55" fill="#0082AA" width="4" height="1"/>
		</g>
		<g>
			<g>
				<path fill="#00A0C8" d="M38,10c-1.105,0-2,0.895-2,2c0-1.105-0.895-2-2-2s-2,0.895-2,2c0-1.105-0.895-2-2-2s-2,0.895-2,2
					c0-1.105-0.895-2-2-2s-2,0.895-2,2c0,1.105,0.895,2,2,2v10h12V14c1.105,0,2-0.895,2-2C40,10.895,39.105,10,38,10z"/>
			</g>
			<g>
				<path fill="#0082AA" d="M38,24H26v3c0,0.552,0.448,1,1,1h10c0.552,0,1-0.448,1-1V24z"/>
			</g>
		</g>
		<g>
			<g>
				<path fill="#C80A50" d="M47,30h-2c-0.552,0-1-0.448-1-1v-6c0-0.552,0.448-1,1-1h2c0.552,0,1,0.448,1,1v6
					C48,29.552,47.552,30,47,30z"/>
			</g>
			<path fill="#0A5078" d="M49,4h-6c-0.552,0-1,0.448-1,1v5c0,1.105,0.895,2,2,2h1v10h2V12h1c1.105,0,2-0.895,2-2V5
				C50,4.448,49.552,4,49,4z M44.5,10C44.224,10,44,9.776,44,9.5v-3C44,6.224,44.224,6,44.5,6S45,6.224,45,6.5v3
				C45,9.776,44.776,10,44.5,10z M48,9.5c0,0.276-0.224,0.5-0.5,0.5S47,9.776,47,9.5v-3C47,6.224,47.224,6,47.5,6S48,6.224,48,6.5
				V9.5z"/>
		</g>
		<g>
			<path fill="#0A5078" d="M22,9c0-2.757-1.794-5-4-5s-4,2.243-4,5c0,2.325,1.277,4.285,3,4.842V22h2v-8.158
				C20.723,13.285,22,11.325,22,9z M16,9c0-1.084,0.407-2.055,1-2.583v5.166C16.407,11.055,16,10.084,16,9z M19,11.583V6.417
				C19.593,6.945,20,7.916,20,9S19.593,11.055,19,11.583z"/>
			<g>
				<path fill="#C80A50" d="M19,30h-2c-0.552,0-1-0.448-1-1v-6c0-0.552,0.448-1,1-1h2c0.552,0,1,0.448,1,1v6
					C20,29.552,19.552,30,19,30z"/>
			</g>
		</g>
	</g>
</g>
</svg>
