<?xml version="1.0" encoding="iso-8859-1"?>
<!-- Generator: Adobe Illustrator 19.0.0, SVG Export Plug-In . SVG Version: 6.00 Build 0)  -->
<svg xmlns="http://www.w3.org/2000/svg" xmlns:xlink="http://www.w3.org/1999/xlink" version="1.1" id="Capa_1" x="0px" y="0px" viewBox="0 0 511.998 511.998" style="enable-background:new 0 0 511.998 511.998;" xml:space="preserve">
<path style="fill:#F5C093;" d="M359.656,7.5h-207.32c-19.661,0-35.6,15.939-35.6,35.6v296.04c0,19.661,15.939,35.6,35.6,35.6h55.73  c6.959,0,12.6,5.641,12.6,12.6v3.879c0,6.959-5.641,12.6-12.6,12.6l0,0c-8.047,0-14.57,6.523-14.57,14.57v50.131  c0,19.871,16.108,35.979,35.979,35.979h53.042c19.871,0,35.979-16.108,35.979-35.979v-50.13c0-8.047-6.523-14.57-14.57-14.57l0,0  c-6.959,0-12.6-5.641-12.6-12.6v-3.879c0-6.959,5.641-12.6,12.6-12.6h55.74c19.656,0,35.59-15.934,35.59-35.59V43.1  C395.256,23.439,379.318,7.5,359.656,7.5z M280.129,455.326c0,6.698-5.43,12.128-12.128,12.128h-24.009  c-6.698,0-12.128-5.43-12.128-12.128v-16.243c0-6.698,5.43-12.128,12.128-12.128h24.009c6.698,0,12.128,5.43,12.128,12.128V455.326z  "/>
<g>
	<path style="fill:#C7967B;" d="M231.864,455.326v-16.243c0-6.698,5.43-12.128,12.128-12.128h-19   c-6.698,0-12.128,5.43-12.128,12.128v16.243c0,6.698,5.43,12.128,12.128,12.128h19   C237.294,467.454,231.864,462.024,231.864,455.326z"/>
	<path style="fill:#C7967B;" d="M303.927,403.82L303.927,403.82c-6.959,0-12.6-5.641-12.6-12.6v-3.879c0-6.959,5.641-12.6,12.6-12.6   h-19c-6.959,0-12.6,5.641-12.6,12.6v3.879c0,6.959,5.641,12.6,12.6,12.6l0,0c8.047,0,14.57,6.523,14.57,14.57v50.131   c0,19.871-16.108,35.979-35.979,35.979h19c19.871,0,35.979-16.108,35.979-35.979V418.39   C318.496,410.343,311.973,403.82,303.927,403.82z"/>
	<path style="fill:#C7967B;" d="M359.656,7.5h-19c19.661,0,35.6,15.939,35.6,35.6v296.05c0,19.656-15.934,35.59-35.59,35.59h19   c19.656,0,35.59-15.934,35.59-35.59V43.1C395.256,23.439,379.318,7.5,359.656,7.5z"/>
</g>
<circle style="fill:#FAD06A;" cx="204.5" cy="276.05" r="56.43"/>
<path style="fill:#AAB0B8;" d="M54.347,25.467L298.22,147.39l-30.584,60.974L134.972,142.04  C85.405,117.259,51.537,74.371,50.214,34.707l-0.216-6.458C49.922,25.976,52.31,24.449,54.347,25.467z"/>
<path style="fill:#D8DFE6;" d="M60.503,28.545l-6.156-3.077c-2.037-1.019-4.425,0.509-4.349,2.782l0.216,6.458  c1.324,39.664,35.192,82.552,84.759,107.332l132.664,66.324l8.97-17.883l-132.664-66.324  C99.227,101.801,67.299,64.711,60.503,28.545z"/>
<path style="fill:#F2464F;" d="M460.836,234.04l-19.67,39.19c-2.71,5.41-9.3,7.6-14.71,4.89l-108.43-54.2  c-7.85-3.93-17.41-0.76-21.35,7.09c-1.11,2.2-3.33,3.48-5.65,3.48c-0.95,0-1.91-0.22-2.82-0.67l-18.79-9.39  c-4.35-2.17-6.11-7.45-3.93-11.79l26.79-53.4l6.99-13.94c0.95-1.89,3.25-2.66,5.15-1.71l151.52,75.75  C461.356,222.05,463.546,228.63,460.836,234.04z"/>
<path style="fill:#DB3747;" d="M460.836,234.04l-4.57,9.09c-1.02-2-2.66-3.71-4.83-4.79l-159.16-79.1l6.99-13.94  c0.95-1.89,3.25-2.66,5.15-1.71l151.52,75.75C461.356,222.05,463.546,228.63,460.836,234.04z"/>
<path d="M224.364,439.083v16.244c0,10.823,8.805,19.628,19.628,19.628H268c10.823,0,19.628-8.805,19.628-19.628v-16.244  c0-10.823-8.805-19.628-19.628-19.628h-24.008C233.169,419.454,224.364,428.259,224.364,439.083z M272.629,439.083v16.244  c0,2.552-2.076,4.628-4.628,4.628h-24.008c-2.552,0-4.628-2.076-4.628-4.628v-16.244c0-2.552,2.076-4.628,4.628-4.628h24.008  C270.553,434.454,272.629,436.53,272.629,439.083z"/>
<path d="M204.497,212.113c-35.252,0-63.933,28.681-63.933,63.934s28.68,63.934,63.933,63.934s63.933-28.681,63.933-63.934  S239.75,212.113,204.497,212.113z M204.497,324.98c-26.982,0-48.933-21.952-48.933-48.934s21.951-48.934,48.933-48.934  s48.933,21.952,48.933,48.934S231.479,324.98,204.497,324.98z"/>
<path d="M204.497,231.594c-4.142,0-7.5,3.358-7.5,7.5v13.566c0,4.142,3.358,7.5,7.5,7.5s7.5-3.358,7.5-7.5v-13.566  C211.997,234.952,208.639,231.594,204.497,231.594z"/>
<path d="M204.497,291.933c-4.142,0-7.5,3.358-7.5,7.5v13.566c0,4.142,3.358,7.5,7.5,7.5s7.5-3.358,7.5-7.5v-13.566  C211.997,295.291,208.639,291.933,204.497,291.933z"/>
<path d="M221.034,267.01c1.919,0,3.839-0.732,5.303-2.197l9.593-9.593c2.929-2.929,2.929-7.678,0-10.606  c-2.929-2.929-7.678-2.929-10.606,0l-9.593,9.593c-2.929,2.929-2.929,7.678,0,10.606C217.195,266.277,219.114,267.01,221.034,267.01  z"/>
<path d="M182.658,287.28l-9.593,9.593c-2.929,2.929-2.929,7.678,0,10.606c1.464,1.464,3.384,2.197,5.303,2.197  s3.839-0.732,5.303-2.197l9.593-9.593c2.929-2.929,2.929-7.678,0-10.606C190.335,284.351,185.586,284.351,182.658,287.28z"/>
<path d="M220.383,276.046c0,4.142,3.358,7.5,7.5,7.5h13.566c4.142,0,7.5-3.358,7.5-7.5s-3.358-7.5-7.5-7.5h-13.566  C223.741,268.546,220.383,271.904,220.383,276.046z"/>
<path d="M188.611,276.046c0-4.142-3.358-7.5-7.5-7.5h-13.566c-4.142,0-7.5,3.358-7.5,7.5s3.358,7.5,7.5,7.5h13.566  C185.253,283.546,188.611,280.188,188.611,276.046z"/>
<path d="M226.337,287.28c-2.929-2.929-7.678-2.929-10.606,0c-2.929,2.929-2.929,7.678,0,10.606l9.593,9.593  c1.464,1.464,3.384,2.197,5.303,2.197s3.839-0.732,5.303-2.197c2.929-2.929,2.929-7.678,0-10.606L226.337,287.28z"/>
<path d="M183.671,244.614c-2.929-2.929-7.678-2.929-10.606,0c-2.929,2.929-2.929,7.678,0,10.606l9.593,9.593  c1.464,1.464,3.384,2.197,5.303,2.197s3.839-0.732,5.303-2.197c2.929-2.929,2.929-7.678,0-10.606L183.671,244.614z"/>
<circle cx="204.5" cy="276.05" r="7.5"/>
<path d="M468.548,223.314c-1.557-4.681-4.846-8.474-9.261-10.681l-56.534-28.264V97.667c0-4.142-3.358-7.5-7.5-7.5  s-7.5,3.358-7.5,7.5v79.203l-79.985-39.988c-3.924-1.962-8.454-1.418-11.775,1.01L188.638,84.219  c-3.706-1.852-8.21-0.35-10.062,3.354c-1.852,3.705-0.35,8.21,3.354,10.063l106.217,53.103l-14.889,29.683l-125.959-62.974  c-35.391-17.694-63.136-45.749-74.727-74.486l76.365,38.179c3.707,1.852,8.21,0.35,10.062-3.354c1.852-3.705,0.35-8.21-3.354-10.063  L124.24,52.023V43.1c0-15.495,12.605-28.1,28.099-28.1h207.317c15.494,0,28.099,12.605,28.099,28.1V63c0,4.142,3.358,7.5,7.5,7.5  s7.5-3.358,7.5-7.5V43.1c0-23.766-19.334-43.1-43.099-43.1H152.338c-23.765,0-43.099,19.334-43.099,43.1v1.424L63.864,21.839  c-0.002-0.001-0.003-0.002-0.005-0.003l-6.156-3.077c-0.837-0.418-1.706-0.719-2.59-0.903c-2.65-0.553-5.422-0.057-7.783,1.457  c-3.146,2.019-4.95,5.453-4.825,9.187l0.215,6.458c0.703,21.073,9.658,43.081,25.897,63.646  c10.997,13.926,24.798,26.505,40.62,37.124V289c0,4.142,3.358,7.5,7.5,7.5s7.5-3.358,7.5-7.5V144.851  c2.428,1.339,4.883,2.647,7.382,3.897l126.158,63.072c-0.989,3.211-0.974,6.638,0.108,9.891c1.375,4.131,4.277,7.479,8.174,9.427  l18.789,9.394c6.807,3.403,15.123,0.64,18.534-6.162c2.076-4.139,7.142-5.819,11.291-3.744l73.079,36.536v71.987  c0,15.489-12.601,28.09-28.089,28.09h-55.739c-11.083,0-20.1,9.017-20.1,20.1v3.88c0,5.369,2.091,10.417,5.886,14.212  c3.795,3.796,8.843,5.887,14.214,5.887c3.898,0,7.07,3.172,7.07,7.07v50.13c0,15.704-12.776,28.48-28.48,28.48h-53.039  c-15.704,0-28.48-12.776-28.48-28.48v-50.13c0-1.89,0.733-3.662,2.083-5.007c1.326-1.331,3.097-2.063,4.987-2.063  c11.083,0,20.1-9.017,20.1-20.1v-3.88c0-11.083-9.016-20.1-20.1-20.1h-55.729c-15.494,0-28.099-12.605-28.099-28.1v-16.807  c0-4.142-3.358-7.5-7.5-7.5s-7.5,3.358-7.5,7.5v16.807c0,23.766,19.334,43.1,43.099,43.1h55.729c2.812,0,5.1,2.288,5.1,5.1v3.88  c0,2.812-2.288,5.1-5.1,5.1c-5.907,0-11.452,2.3-15.593,6.457c-4.176,4.161-6.476,9.706-6.476,15.613v50.13  c0,23.975,19.505,43.48,43.479,43.48h53.039c23.975,0,43.479-19.505,43.479-43.48v-50.13c0-12.169-9.9-22.07-22.069-22.07  c-1.363,0-2.644-0.53-3.607-1.493c-0.963-0.963-1.493-2.244-1.493-3.606v-3.88c0-2.812,2.288-5.1,5.1-5.1h55.739  c23.759,0,43.089-19.33,43.089-43.09v-64.488l20.341,10.17c2.645,1.322,5.459,1.948,8.234,1.948c6.774,0,13.308-3.733,16.543-10.182  l19.662-39.199C469.743,232.993,470.104,227.991,468.548,223.314z M134.344,133.275c-0.42-0.222-0.834-0.451-1.251-0.676  c-0.902-0.486-1.799-0.977-2.689-1.476c-0.472-0.265-0.941-0.532-1.41-0.8c-0.845-0.483-1.684-0.972-2.517-1.466  c-0.453-0.269-0.907-0.536-1.357-0.808c-0.913-0.551-1.816-1.112-2.714-1.676c-0.343-0.215-0.69-0.427-1.031-0.644  c-1.226-0.781-2.439-1.572-3.637-2.376c-0.243-0.163-0.481-0.331-0.723-0.495c-0.955-0.648-1.904-1.301-2.841-1.962  c-0.409-0.289-0.812-0.582-1.218-0.873c-0.769-0.553-1.534-1.109-2.29-1.671c-0.427-0.317-0.853-0.636-1.276-0.956  c-0.748-0.566-1.488-1.137-2.223-1.712c-0.39-0.305-0.782-0.608-1.168-0.916c-0.873-0.695-1.734-1.396-2.587-2.103  c-0.226-0.187-0.457-0.371-0.682-0.558c-1.064-0.89-2.111-1.789-3.143-2.696c-0.305-0.268-0.602-0.54-0.904-0.81  c-0.732-0.652-1.458-1.307-2.174-1.968c-0.372-0.344-0.739-0.69-1.106-1.036c-0.643-0.605-1.279-1.213-1.908-1.824  c-0.366-0.356-0.732-0.713-1.093-1.071c-0.648-0.642-1.285-1.288-1.917-1.937c-0.311-0.32-0.627-0.637-0.935-0.958  c-0.9-0.94-1.788-1.885-2.655-2.838c-0.055-0.06-0.108-0.12-0.163-0.18c-0.854-0.941-1.689-1.889-2.509-2.842  c-0.286-0.331-0.563-0.666-0.844-0.998c-0.567-0.67-1.128-1.342-1.678-2.017c-0.309-0.38-0.615-0.761-0.919-1.142  c-0.519-0.651-1.029-1.304-1.533-1.959c-0.289-0.376-0.578-0.751-0.862-1.128c-0.546-0.726-1.078-1.455-1.605-2.186  c-0.215-0.299-0.436-0.596-0.648-0.895c-0.723-1.022-1.428-2.048-2.112-3.078c-0.148-0.223-0.287-0.447-0.433-0.67  c-0.535-0.818-1.062-1.637-1.572-2.459c-0.229-0.369-0.45-0.738-0.674-1.108c-0.418-0.689-0.828-1.379-1.228-2.071  c-0.228-0.394-0.453-0.788-0.675-1.183c-0.391-0.696-0.771-1.393-1.145-2.092c-0.197-0.37-0.398-0.739-0.59-1.109  c-0.441-0.848-0.864-1.697-1.278-2.548c-0.103-0.213-0.214-0.425-0.315-0.637c-0.506-1.06-0.988-2.121-1.451-3.184  c-0.13-0.299-0.25-0.598-0.376-0.896c-0.328-0.774-0.648-1.548-0.952-2.323c-0.15-0.381-0.293-0.762-0.437-1.143  c-0.267-0.706-0.525-1.413-0.772-2.12c-0.136-0.389-0.271-0.777-0.401-1.166c-0.067-0.201-0.126-0.402-0.192-0.603  c14.171,29.794,42.607,57.411,79.057,75.635l125.942,62.965l-2.245,4.475l-125.959-62.973  C136.987,134.661,135.661,133.973,134.344,133.275z M454.126,230.673l-19.662,39.199c-0.857,1.708-2.948,2.399-4.661,1.542  l-30.941-15.469c-0.074-0.041-0.152-0.076-0.228-0.114l-77.251-38.622c-3.353-1.676-6.921-2.47-10.438-2.47  c-8.215,0-16.151,4.33-20.412,11.863l-17.764-8.881c-0.397-0.198-0.571-0.514-0.648-0.745c-0.076-0.229-0.125-0.583,0.07-0.972  l2.129-4.245c0.006-0.012,0.014-0.022,0.02-0.034l29.991-59.793L452.58,226.05c1.117,0.558,1.567,1.492,1.735,1.999  C454.483,228.553,454.682,229.565,454.126,230.673z"/>
<circle cx="313" cy="187.85" r="7.5"/>
<g>
</g>
<g>
</g>
<g>
</g>
<g>
</g>
<g>
</g>
<g>
</g>
<g>
</g>
<g>
</g>
<g>
</g>
<g>
</g>
<g>
</g>
<g>
</g>
<g>
</g>
<g>
</g>
<g>
</g>
</svg>
