<svg xmlns="http://www.w3.org/2000/svg" viewBox="0 0 64 64"><g id="_06-time" data-name="06-time"><rect x="1" y="60" width="62" height="3" style="fill:#da684e"/><rect x="9" y="27" width="46" height="4" style="fill:#da684e"/><path d="M9,35v4H7.24a2,2,0,0,1-1.79-1.11L4,35Z" style="fill:#423e35"/><path d="M60,35l-1.45,2.89A2,2,0,0,1,56.76,39H55V35Z" style="fill:#423e35"/><path d="M9,31v4H2a1,1,0,0,1-1-1V32a1,1,0,0,1,1-1Z" style="fill:#a0968c"/><path d="M63,32v2a1,1,0,0,1-1,1H55V31h7A1,1,0,0,1,63,32Z" style="fill:#a0968c"/><path d="M55,53a4,4,0,0,1-3.52,3.97A3.994,3.994,0,0,0,52,55c0-2.21-1-6-2-6s-6,4.79-6,7a3.129,3.129,0,0,0,.14.96L44,57H35.46A3.989,3.989,0,0,0,36,55c0-2.21-3-6-4-6s-4,3.79-4,6a3.989,3.989,0,0,0,.54,2H20l-.14-.04A3.129,3.129,0,0,0,20,56c0-2.21-5-7-6-7s-2,3.79-2,6a3.994,3.994,0,0,0,.52,1.97A4,4,0,0,1,9,53V31H55V53Z" style="fill:#e8e4dc"/><path d="M58.491,57.5H5.509A.474.474,0,0,0,5,57.929V60H6.019V58.357H16V60h1V58.357H31.5V60h1V58.357H47V60h1V58.357h9.981V60H59V57.929A.474.474,0,0,0,58.491,57.5Z" style="fill:#635d50"/><path d="M3,60H3a2,2,0,0,0,2,2H59a2,2,0,0,0,2-2h2v3H1V60Z" style="fill:#85392b"/><path d="M62,33H58a1,1,0,0,1-1-1V31H55v4h7a1,1,0,0,0,1-1V32A1,1,0,0,1,62,33Z" style="fill:#80786a"/><path d="M55,35v4h1V38a2,2,0,0,1,2-2h1.5l.5-1Z" style="fill:#292721"/><path d="M2,33H6a1,1,0,0,0,1-1V31H9v4H2a1,1,0,0,1-1-1V32A1,1,0,0,0,2,33Z" style="fill:#80786a"/><path d="M9,35v4H8V38a2,2,0,0,0-2-2H4.5L4,35Z" style="fill:#292721"/><path d="M9,27h3a2,2,0,0,0,2,2H50a2,2,0,0,0,2-2h3v4H9Z" style="fill:#bd4c3d"/><path d="M38,55c-.677,0-1.346-.035-2.008-.095,0,.031.008.065.008.095a3.989,3.989,0,0,1-.54,2H44l.14-.04A3.129,3.129,0,0,1,44,56a2.692,2.692,0,0,1,.247-1Z" style="fill:#d6cec1"/><path d="M53,55H52a3.994,3.994,0,0,1-.52,1.97A4,4,0,0,0,55,53,2,2,0,0,1,53,55Z" style="fill:#d6cec1"/><path d="M16,31H9V53a4,4,0,0,0,3.52,3.97A3.994,3.994,0,0,1,12,55c0-2.21,1-6,2-6s6,4.79,6,7a3.129,3.129,0,0,1-.14.96L20,57h8.54A3.989,3.989,0,0,1,28,55a5.172,5.172,0,0,1,.6-2.107A22.091,22.091,0,0,1,18.236,42.669,6.011,6.011,0,0,1,23.619,34H55V31Z" style="fill:#d6cec1"/><path d="M51.48,56.97A4.007,4.007,0,0,1,48,59c-1.85,0-3.41-.56-3.86-2.04A3.129,3.129,0,0,1,44,56c0-2.21,5-7,6-7s2,3.79,2,6A3.994,3.994,0,0,1,51.48,56.97Z" style="fill:#65adaf"/><path d="M35.46,57A4,4,0,0,1,28,55c0-2.21,3-6,4-6s4,3.79,4,6A3.989,3.989,0,0,1,35.46,57Z" style="fill:#65adaf"/><path d="M12.52,56.97A3.994,3.994,0,0,1,12,55c0-2.21,1-6,2-6s6,4.79,6,7a3.129,3.129,0,0,1-.14.96C19.41,58.44,17.85,59,16,59A4.007,4.007,0,0,1,12.52,56.97Z" style="fill:#65adaf"/><rect x="14" y="27" width="30" height="2" rx="1" ry="1" style="fill:#ea735c"/><rect x="45" y="27" width="5" height="2" rx="1" ry="1" style="fill:#ea735c"/><path d="M53,40a2,2,0,0,0-2,2v8.154a12.058,12.058,0,0,1,.714,2.366A1.99,1.99,0,0,0,55,51V42A2,2,0,0,0,53,40Z" style="fill:#f7f3eb"/><rect x="51" y="34" width="4" height="5" rx="2" ry="2" style="fill:#f7f3eb"/><path d="M34.163,57.8a2.549,2.549,0,0,1-4.326,0,2.325,2.325,0,0,1-.337-1.2c0-1.326,1.875-3.6,2.5-3.6s2.5,2.274,2.5,3.6A2.325,2.325,0,0,1,34.163,57.8Z" style="fill:#a3c7b9"/><path d="M50.153,57.8a2.54,2.54,0,0,1-4.316,0,2.325,2.325,0,0,1-.337-1.2c0-1.326,3.867-3.6,4.491-3.6s.5,2.274.5,3.6A2.325,2.325,0,0,1,50.153,57.8Z" style="fill:#a3c7b9"/><path d="M13.847,57.8a2.54,2.54,0,0,0,4.316,0,2.325,2.325,0,0,0,.337-1.2c0-1.326-3.867-3.6-4.491-3.6s-.5,2.274-.5,3.6A2.325,2.325,0,0,0,13.847,57.8Z" style="fill:#a3c7b9"/><path d="M53,1h2a2.006,2.006,0,0,1,2,2V4.52a8.914,8.914,0,0,0-6,0V3A2.006,2.006,0,0,1,53,1Z" style="fill:#da684e"/><path d="M57,4.52a9,9,0,1,1-6,0,8.914,8.914,0,0,1,6,0Z" style="fill:#e8e4dc"/><path d="M5.11,14.2A3,3,0,0,1,11,15l4,4L9,21a3,3,0,1,1-5.83-1l.03-.11A3,3,0,1,1,5,14.17Z" style="fill:#e8e4dc"/><path d="M39.76,8.42a2.139,2.139,0,0,1,1,2.77l-.83,1.9L32.68,9.64l.83-1.9A1.945,1.945,0,0,1,36.14,6.7Z" style="fill:#635d50"/><path d="M53.43,22.42A3.783,3.783,0,0,1,54.69,27L24.06,12.42,13,7.15a3.446,3.446,0,0,1,4.11-2.02L32.68,9.64l7.25,3.45L46,17.29l.07-.04a8.994,8.994,0,0,0,6.76,4.67l-.01.08Z" style="fill:#e8e4dc"/><path d="M42.84,26.94a2.877,2.877,0,0,1-.72,1.18A2.993,2.993,0,0,1,40,29a2.006,2.006,0,0,0-2,2v7a3,3,0,0,1-6,0V34a2.006,2.006,0,0,1-2,2,2.015,2.015,0,0,1-2-2V29.24A1.246,1.246,0,0,0,26.76,28a5.089,5.089,0,0,1-3.05-1,4.268,4.268,0,0,1-1.1-1.14,3.217,3.217,0,0,1-.46-2.87c-.05,0-.1.01-.15.01a4,4,0,0,1,0-8c.05,0,.09.01.14.01A4.022,4.022,0,0,1,24,12.54l.06-.12L54.69,27H43Z" style="fill:#a3c7b9"/><path d="M54,16a9.046,9.046,0,0,1-7.93-4.75,9.222,9.222,0,0,1-.546-1.269,9,9,0,1,0,16.956.011A9,9,0,0,1,54,16Z" style="fill:#d6cec1"/><path d="M4,20a2.953,2.953,0,0,1-.78-.116,3,3,0,1,0,3.56-1.768A3,3,0,0,1,4,20Z" style="fill:#d6cec1"/><path d="M5,15a2.953,2.953,0,0,1,.116-.78,2.992,2.992,0,1,0-1.9,5.664A2.953,2.953,0,0,0,4,20a3,3,0,0,0,2.78-1.884,2.725,2.725,0,0,0,.1-.336A3,3,0,0,1,5,15Z" style="fill:#e8e4dc"/><path d="M8,12a2.992,2.992,0,0,0-2.884,2.22A2.953,2.953,0,0,0,5,15a3,3,0,1,0,3-3Z" style="fill:#f7f3eb"/><path d="M40.447,10.106a1,1,0,0,1-1.341.447L34.894,8.447a1,1,0,0,1-.447-1.341l.24-.479A2.009,2.009,0,0,0,33.51,7.74l-.83,1.9,7.25,3.45.83-1.9a2.175,2.175,0,0,0,0-1.7Z" style="fill:#423e35"/><path d="M53.877,22.794a1.993,1.993,0,0,1-2.02.163L19.25,7.094a1.987,1.987,0,0,1-1.112-1.666l-1.028-.3A3.446,3.446,0,0,0,13,7.15l11.06,5.27L54.69,27A3.806,3.806,0,0,0,53.877,22.794Z" style="fill:#d6cec1"/><path d="M40,29h3.8a3.032,3.032,0,0,0,.2-1.047V27H42.813a2.894,2.894,0,0,1-.693,1.12A2.993,2.993,0,0,1,40,29Z" style="fill:#bd4c3d"/><path d="M27.951,29a1.229,1.229,0,0,0-1.191-1,5.089,5.089,0,0,1-3.05-1h-.677a3.307,3.307,0,0,0,.921,2Z" style="fill:#bd4c3d"/><path d="M38,34v4a3,3,0,0,1-6,0V34a2,2,0,0,1-1,1.721A2,2,0,0,1,28,34v3.5a1.5,1.5,0,0,0,3,0v3a4.5,4.5,0,0,0,9,0V34Z" style="fill:#d6cec1"/><path d="M27.951,29h-4a3.314,3.314,0,0,0,2.374,1H28v-.76A1.136,1.136,0,0,0,27.951,29Z" style="fill:#9c3f32"/><path d="M38,31h2.953A3.039,3.039,0,0,0,43.8,29H40A2.006,2.006,0,0,0,38,31Z" style="fill:#9c3f32"/><path d="M38,34h2V31.953A.953.953,0,0,1,40.953,31H38Z" style="fill:#a0968c"/><path d="M56,1.279V2a1,1,0,0,1-1,1H53a1,1,0,0,1-1-1V1.279A2,2,0,0,0,51,3V4.52a8.914,8.914,0,0,1,6,0V3A2,2,0,0,0,56,1.279Z" style="fill:#bd4c3d"/><path d="M48.388,24,24.06,12.42l-.06.12A4.018,4.018,0,0,0,22.144,15l19.117,9.229A3.078,3.078,0,0,1,43,27H54.69Z" style="fill:#65adaf"/><path d="M30,30v3a1.993,1.993,0,0,1-1.736,1.973A1.983,1.983,0,0,0,30,36a2.006,2.006,0,0,0,2-2V28A2,2,0,0,0,30,30Z" style="fill:#65adaf"/><path d="M36,33v4a2,2,0,0,1-2,2H32.185A2.992,2.992,0,0,0,38,38V31A2,2,0,0,0,36,33Z" style="fill:#65adaf"/><path d="M24.316,22.571a1.969,1.969,0,0,0,.011,2.149A3.756,3.756,0,0,0,27.313,26a.885.885,0,0,0,.526-.114.458.458,0,0,0,.14-.5c-.046-.176-.15-.337-.21-.509a2.842,2.842,0,0,1,.031-1.286,1.254,1.254,0,0,0-.374-1.208,2.975,2.975,0,0,0-2.884-.02A1.155,1.155,0,0,0,24.316,22.571Z" style="fill:#b8dbd2"/><path d="M19.506,19.257a3.049,3.049,0,0,0,2.36,2.711c.465.094,1.067-.006,1.215-.457a2.854,2.854,0,0,0,.049-.579c.079-.693.814-1.1,1.159-1.706A2.355,2.355,0,0,0,22.315,16,3.161,3.161,0,0,0,19.506,19.257Z" style="fill:#b8dbd2"/><path d="M28.507,24.737a1.09,1.09,0,0,0,.031.427,1.034,1.034,0,0,0,.155.283,2.393,2.393,0,0,0,2.08,1.047.766.766,0,0,0,.594-.278,1.224,1.224,0,0,0,0-1.105C30.847,23.785,28.711,22.453,28.507,24.737Z" style="fill:#b8dbd2"/><rect x="33" y="32" width="2" height="6" rx="1" ry="1" style="fill:#b8dbd2"/><path d="M54,15a.932.932,0,0,0,.2-.02l5-1L58.8,12.02l-3.8.76V8H53v6a1,1,0,0,0,1,1Z"/><path d="M2.045,20.468A3.936,3.936,0,0,0,2,21a4,4,0,0,0,7.931.744l5.385-1.795a1,1,0,0,0,.391-1.656l-3.73-3.731a3.986,3.986,0,0,0-7.445-1.517A3.936,3.936,0,0,0,4,13a3.986,3.986,0,0,0-1.955,7.468ZM4,15a4,4,0,0,0,4,4V17a2,2,0,1,1,2-2,1,1,0,0,0,.293.707l2.855,2.856L8.684,20.051A1,1,0,0,0,8,21a2,2,0,0,1-4,0,3.967,3.967,0,0,0,1.334-.229l-.668-1.884A2,2,0,1,1,4,15Z"/><path d="M63,59H60v2h2v1H2V61H4V59H1a1,1,0,0,0-1,1v3a1,1,0,0,0,1,1H63a1,1,0,0,0,1-1V60A1,1,0,0,0,63,59Z"/><path d="M62,30H58v2h4v2H56V27a.977.977,0,0,0-.121-.452,4.784,4.784,0,0,0-.633-3.634A9.985,9.985,0,0,0,61.122,5.992l.325-.65,1.106.553.894-1.79-4-2L58.553,3.9l1.105.552-.117.235A9.936,9.936,0,0,0,58,3.841V3a3,3,0,0,0-3-3H53a3,3,0,0,0-3,3v.841a9.936,9.936,0,0,0-1.541.841l-.117-.235L49.447,3.9l-.894-1.79-4,2,.894,1.79,1.106-.553.325.65a9.9,9.9,0,0,0-2.706,8.815l-3-2.071.5-1.151a3.144,3.144,0,0,0-1.48-4.065L36.568,5.794A2.877,2.877,0,0,0,34.3,5.7a3.006,3.006,0,0,0-1.709,1.645l-.472,1.094L17.388,4.172a4.416,4.416,0,0,0-5.306,2.586,1,1,0,0,0,.488,1.3l9.709,4.621a5.072,5.072,0,0,0-.862,1.355A5,5,0,0,0,21,23.9a4.221,4.221,0,0,0,.779,2.516A5.935,5.935,0,0,0,26.757,29a.243.243,0,0,1,.243.244V30H18v2h9v2a3,3,0,0,0,4,2.829V38a4,4,0,0,0,8,0V31a1,1,0,0,1,1-1,4,4,0,0,0,4-4H42a2,2,0,0,1-2,2,3,3,0,0,0-3,3v7a2,2,0,0,1-4,0V29a1,1,0,0,0-2,0v5a1,1,0,0,1-2,0V29.244A2.245,2.245,0,0,0,26.757,27a3.941,3.941,0,0,1-3.315-1.694,2.264,2.264,0,0,1-.329-2.066,1,1,0,0,0-.186-.881.99.99,0,0,0-.82-.373A.286.286,0,0,0,22,22a3,3,0,0,1-.069-6c.037,0,.136.015.173.016a1,1,0,0,0,1-.752,3.027,3.027,0,0,1,1.121-1.655L50.261,26H45v2h9v2H41v2H54V53a2.982,2.982,0,0,1-1.024,2.24c0-.081.024-.158.024-.24,0-.918-.56-7-3-7-1.653,0-7,5.29-7,8H36.9a5,5,0,0,0,.1-1c0-2.486-3.225-7-5-7s-5,4.514-5,7a5,5,0,0,0,.1,1H21c0-2.71-5.347-8-7-8-2.44,0-3,6.082-3,7,0,.082.02.159.024.24A2.982,2.982,0,0,1,10,53V32h2V30H10V28H21V26H9a1,1,0,0,0-1,1v7H2V32H6V30H2a2,2,0,0,0-2,2v2a2,2,0,0,0,2,2H3.382l1.171,2.342A2.983,2.983,0,0,0,7.236,40H8V53a5,5,0,0,0,3.924,4.876A5,5,0,0,0,13.031,59H6v2H58V59H50.969a5,5,0,0,0,1.107-1.124A5,5,0,0,0,56,53V40h.764a2.983,2.983,0,0,0,2.683-1.658L60.618,36H62a2,2,0,0,0,2-2V32A2,2,0,0,0,62,30ZM7.236,38a1,1,0,0,1-.894-.553L5.618,36H8v2ZM49.869,50.114A12.1,12.1,0,0,1,51,55a3,3,0,0,1-3,3c-3,0-3-1.505-3-2C45,54.6,48.529,50.91,49.869,50.114ZM32,50.052c.849.537,3,3.339,3,4.948a3,3,0,0,1-6,0C29,53.391,31.151,50.589,32,50.052Zm-17.869.062C15.471,50.91,19,54.6,19,56c0,.495,0,2-3,2a3,3,0,0,1-3-3A12.1,12.1,0,0,1,14.131,50.114ZM20.466,58h7.56a5.012,5.012,0,0,0,1,1H19.579A3.433,3.433,0,0,0,20.466,58Zm14.5,1a5.012,5.012,0,0,0,1-1h7.56a3.433,3.433,0,0,0,.887,1ZM52,3a1,1,0,0,1,1-1h2a1,1,0,0,1,1,1v.2a10,10,0,0,0-4,0Zm2,2a8,8,0,1,1-8,8A8.009,8.009,0,0,1,54,5ZM34.423,8.134A1.026,1.026,0,0,1,35,7.568a.9.9,0,0,1,.71.032l3.625,1.725a1.143,1.143,0,0,1,.5,1.467l-.41.952L33.983,9.152ZM16.831,6.093l15.5,4.486,7.1,3.381,5.979,4.134a10.014,10.014,0,0,0,6.866,4.747l.583.4a2.733,2.733,0,0,1,1.13,2.316L14.457,6.74A2.376,2.376,0,0,1,16.831,6.093ZM57.658,37.447a1,1,0,0,1-.894.553H56V36h2.382Z"/><rect x="14" y="30" width="2" height="2"/></g></svg>